<svg xmlns="http://www.w3.org/2000/svg" xmlns:xlink="http://www.w3.org/1999/xlink" width="250" zoomAndPan="magnify" viewBox="0 0 187.5 187.499992" height="250" preserveAspectRatio="xMidYMid meet" version="1.0"><path fill="#000000" d="M 184.472656 130.925781 L 168.371094 96.507812 L 168.371094 40.574219 C 168.371094 39.660156 168.046875 38.878906 167.402344 38.234375 L 138.175781 9.039062 C 137.53125 8.390625 136.75 8.070312 135.835938 8.070312 L 117.6875 8.070312 L 113.191406 5.359375 C 112.410156 4.886719 111.574219 4.757812 110.683594 4.976562 L 106.433594 6.023438 L 90.375 0.199219 C 89.515625 -0.109375 88.671875 -0.0742188 87.839844 0.3125 L 71.203125 8.078125 L 42.535156 8.078125 C 42.09375 8.078125 41.671875 8.160156 41.265625 8.328125 C 40.859375 8.496094 40.5 8.734375 40.191406 9.046875 C 39.878906 9.355469 39.640625 9.714844 39.472656 10.121094 C 39.304688 10.527344 39.21875 10.949219 39.21875 11.386719 L 39.21875 22.535156 L 21.214844 26.960938 C 20.789062 27.066406 20.398438 27.25 20.042969 27.507812 C 19.691406 27.769531 19.398438 28.085938 19.171875 28.460938 C 18.945312 28.835938 18.796875 29.242188 18.730469 29.675781 C 18.664062 30.109375 18.683594 30.539062 18.789062 30.964844 L 19.136719 32.371094 L 4.363281 39.273438 C 3.964844 39.457031 3.617188 39.710938 3.320312 40.035156 C 3.023438 40.359375 2.796875 40.730469 2.648438 41.140625 C 2.5 41.554688 2.433594 41.980469 2.453125 42.417969 C 2.472656 42.855469 2.578125 43.277344 2.761719 43.671875 L 39.222656 121.59375 L 39.222656 169.214844 C 39.222656 169.652344 39.304688 170.074219 39.472656 170.480469 C 39.640625 170.882812 39.882812 171.242188 40.191406 171.550781 C 40.503906 171.863281 40.859375 172.101562 41.265625 172.269531 C 41.671875 172.4375 42.09375 172.519531 42.535156 172.519531 L 53.644531 172.519531 L 56.058594 182.332031 C 56.164062 182.757812 56.347656 183.148438 56.605469 183.5 C 56.867188 183.855469 57.183594 184.144531 57.558594 184.371094 C 57.9375 184.601562 58.339844 184.746094 58.777344 184.8125 C 59.210938 184.878906 59.640625 184.859375 60.066406 184.753906 L 67.875 182.835938 L 68.835938 184.890625 C 69.019531 185.289062 69.273438 185.640625 69.597656 185.9375 C 69.921875 186.234375 70.292969 186.457031 70.703125 186.609375 C 71.117188 186.757812 71.542969 186.824219 71.984375 186.804688 C 72.421875 186.785156 72.839844 186.683594 73.242188 186.5 L 95.730469 176.003906 L 109.855469 172.53125 L 165.058594 172.53125 C 165.496094 172.53125 165.921875 172.449219 166.324219 172.28125 C 166.730469 172.113281 167.089844 171.871094 167.402344 171.5625 C 167.710938 171.253906 167.949219 170.894531 168.117188 170.488281 C 168.285156 170.082031 168.371094 169.660156 168.371094 169.222656 L 168.371094 158.148438 L 177.578125 155.882812 C 178.007812 155.78125 178.398438 155.597656 178.75 155.335938 C 179.105469 155.078125 179.394531 154.761719 179.625 154.382812 C 179.851562 154.007812 179.996094 153.605469 180.0625 153.171875 C 180.128906 152.738281 180.109375 152.308594 180.003906 151.878906 L 176.644531 138.222656 L 182.878906 135.3125 C 183.277344 135.128906 183.625 134.875 183.921875 134.550781 C 184.21875 134.226562 184.445312 133.859375 184.59375 133.449219 C 184.746094 133.035156 184.8125 132.609375 184.792969 132.171875 C 184.773438 131.730469 184.671875 131.3125 184.488281 130.914062 Z M 139.144531 19.375 L 157.058594 37.265625 L 139.144531 37.265625 Z M 89.402344 6.886719 L 92.683594 8.078125 L 86.851562 8.078125 Z M 39.222656 29.351562 L 39.222656 86.25 L 26.007812 32.597656 Z M 20.742188 38.933594 L 35.0625 97.066406 L 10.167969 43.867188 Z M 60.472656 172.519531 L 82.117188 172.519531 L 61.707031 177.542969 Z M 45.851562 165.894531 L 45.851562 14.695312 L 132.519531 14.695312 L 132.519531 40.574219 C 132.519531 41.011719 132.605469 41.433594 132.773438 41.839844 C 132.941406 42.246094 133.179688 42.605469 133.492188 42.914062 C 133.800781 43.222656 134.160156 43.464844 134.566406 43.628906 C 134.972656 43.796875 135.394531 43.882812 135.835938 43.882812 L 161.742188 43.882812 L 161.742188 165.910156 Z M 168.371094 151.320312 L 168.371094 132.367188 L 172.777344 150.242188 Z M 175.03125 131.667969 L 172.269531 120.476562 L 177.066406 130.71875 Z M 55.765625 43.117188 C 55.765625 42.679688 55.851562 42.253906 56.019531 41.851562 C 56.1875 41.445312 56.425781 41.085938 56.738281 40.777344 C 57.050781 40.464844 57.40625 40.226562 57.8125 40.058594 C 58.21875 39.890625 58.640625 39.808594 59.082031 39.808594 L 87.222656 39.808594 C 87.65625 39.820312 88.070312 39.910156 88.46875 40.082031 C 88.863281 40.257812 89.210938 40.496094 89.515625 40.804688 C 89.816406 41.117188 90.050781 41.46875 90.210938 41.871094 C 90.375 42.269531 90.457031 42.6875 90.457031 43.117188 C 90.457031 43.550781 90.375 43.964844 90.210938 44.367188 C 90.050781 44.765625 89.816406 45.121094 89.515625 45.429688 C 89.210938 45.738281 88.863281 45.980469 88.46875 46.152344 C 88.070312 46.324219 87.65625 46.417969 87.222656 46.425781 L 59.082031 46.425781 C 58.644531 46.425781 58.222656 46.34375 57.816406 46.175781 C 57.414062 46.007812 57.054688 45.769531 56.742188 45.460938 C 56.433594 45.152344 56.191406 44.792969 56.023438 44.390625 C 55.855469 43.984375 55.769531 43.566406 55.769531 43.125 Z M 55.765625 56.765625 C 55.765625 56.328125 55.851562 55.902344 56.019531 55.5 C 56.1875 55.09375 56.425781 54.734375 56.738281 54.425781 C 57.050781 54.113281 57.40625 53.875 57.8125 53.707031 C 58.21875 53.539062 58.640625 53.457031 59.082031 53.457031 L 109.90625 53.457031 C 110.347656 53.457031 110.769531 53.542969 111.179688 53.710938 C 111.585938 53.878906 111.941406 54.117188 112.253906 54.429688 C 112.566406 54.738281 112.804688 55.097656 112.972656 55.503906 C 113.140625 55.910156 113.226562 56.332031 113.226562 56.769531 C 113.226562 57.210938 113.140625 57.632812 112.972656 58.039062 C 112.804688 58.445312 112.566406 58.804688 112.253906 59.113281 C 111.941406 59.425781 111.585938 59.664062 111.179688 59.832031 C 110.769531 60 110.347656 60.085938 109.90625 60.085938 L 59.082031 60.085938 C 58.644531 60.085938 58.222656 60 57.816406 59.832031 C 57.410156 59.664062 57.050781 59.425781 56.738281 59.117188 C 56.429688 58.804688 56.191406 58.449219 56.023438 58.042969 C 55.851562 57.636719 55.769531 57.214844 55.769531 56.773438 Z M 151.824219 75.097656 C 151.824219 75.535156 151.738281 75.960938 151.570312 76.363281 C 151.402344 76.769531 151.164062 77.128906 150.851562 77.4375 C 150.542969 77.75 150.183594 77.988281 149.777344 78.15625 C 149.371094 78.324219 148.949219 78.40625 148.507812 78.40625 L 59.082031 78.40625 C 58.644531 78.40625 58.21875 78.324219 57.8125 78.15625 C 57.40625 77.988281 57.046875 77.746094 56.738281 77.4375 C 56.425781 77.125 56.1875 76.769531 56.019531 76.363281 C 55.847656 75.957031 55.765625 75.535156 55.765625 75.09375 C 55.765625 74.652344 55.847656 74.230469 56.019531 73.824219 C 56.1875 73.417969 56.425781 73.0625 56.738281 72.75 C 57.046875 72.441406 57.40625 72.199219 57.8125 72.03125 C 58.21875 71.863281 58.644531 71.78125 59.082031 71.78125 L 148.511719 71.78125 C 148.953125 71.78125 149.375 71.863281 149.78125 72.035156 C 150.191406 72.203125 150.550781 72.441406 150.859375 72.753906 C 151.171875 73.066406 151.410156 73.429688 151.578125 73.835938 C 151.746094 74.242188 151.828125 74.667969 151.824219 75.109375 Z M 151.824219 90.273438 C 151.824219 90.714844 151.742188 91.136719 151.578125 91.546875 C 151.410156 91.953125 151.171875 92.3125 150.859375 92.625 C 150.550781 92.9375 150.191406 93.179688 149.78125 93.347656 C 149.375 93.515625 148.953125 93.601562 148.511719 93.601562 L 59.082031 93.601562 C 58.644531 93.601562 58.21875 93.515625 57.8125 93.347656 C 57.40625 93.179688 57.046875 92.941406 56.738281 92.628906 C 56.425781 92.320312 56.1875 91.960938 56.019531 91.554688 C 55.847656 91.148438 55.765625 90.726562 55.765625 90.285156 C 55.765625 89.847656 55.847656 89.425781 56.019531 89.019531 C 56.1875 88.613281 56.425781 88.253906 56.738281 87.945312 C 57.046875 87.632812 57.40625 87.394531 57.8125 87.226562 C 58.21875 87.058594 58.644531 86.972656 59.082031 86.972656 L 148.511719 86.972656 C 148.949219 86.972656 149.371094 87.058594 149.777344 87.226562 C 150.183594 87.394531 150.542969 87.632812 150.855469 87.941406 C 151.164062 88.253906 151.40625 88.609375 151.574219 89.015625 C 151.742188 89.421875 151.824219 89.84375 151.824219 90.28125 Z M 151.824219 105.449219 C 151.824219 105.886719 151.738281 106.308594 151.570312 106.714844 C 151.402344 107.121094 151.164062 107.476562 150.851562 107.789062 C 150.542969 108.097656 150.183594 108.335938 149.777344 108.503906 C 149.371094 108.671875 148.949219 108.757812 148.507812 108.757812 L 59.082031 108.757812 C 58.644531 108.757812 58.21875 108.671875 57.8125 108.503906 C 57.40625 108.335938 57.046875 108.097656 56.734375 107.785156 C 56.421875 107.476562 56.183594 107.117188 56.015625 106.710938 C 55.84375 106.304688 55.761719 105.882812 55.761719 105.441406 C 55.761719 105.003906 55.84375 104.578125 56.015625 104.171875 C 56.183594 103.765625 56.421875 103.40625 56.734375 103.097656 C 57.046875 102.785156 57.40625 102.546875 57.8125 102.378906 C 58.21875 102.210938 58.644531 102.128906 59.082031 102.128906 L 148.511719 102.128906 C 148.953125 102.128906 149.375 102.210938 149.78125 102.382812 C 150.1875 102.550781 150.546875 102.789062 150.859375 103.101562 C 151.171875 103.414062 151.410156 103.773438 151.578125 104.179688 C 151.742188 104.589844 151.828125 105.011719 151.824219 105.453125 Z M 151.824219 120.621094 C 151.824219 121.0625 151.738281 121.484375 151.570312 121.890625 C 151.402344 122.292969 151.164062 122.652344 150.851562 122.960938 C 150.542969 123.273438 150.183594 123.511719 149.777344 123.679688 C 149.371094 123.847656 148.949219 123.929688 148.507812 123.929688 L 59.082031 123.929688 C 58.644531 123.929688 58.21875 123.847656 57.8125 123.679688 C 57.40625 123.511719 57.046875 123.269531 56.738281 122.960938 C 56.425781 122.648438 56.1875 122.292969 56.019531 121.886719 C 55.847656 121.480469 55.765625 121.054688 55.765625 120.617188 C 55.765625 120.175781 55.847656 119.753906 56.019531 119.347656 C 56.1875 118.941406 56.425781 118.585938 56.738281 118.273438 C 57.046875 117.960938 57.40625 117.722656 57.8125 117.554688 C 58.21875 117.386719 58.644531 117.300781 59.082031 117.300781 L 148.511719 117.300781 C 148.953125 117.300781 149.375 117.386719 149.785156 117.554688 C 150.191406 117.726562 150.550781 117.964844 150.859375 118.277344 C 151.171875 118.59375 151.410156 118.953125 151.578125 119.359375 C 151.746094 119.769531 151.828125 120.191406 151.824219 120.632812 Z M 151.824219 135.796875 C 151.824219 136.234375 151.738281 136.65625 151.570312 137.0625 C 151.402344 137.46875 151.164062 137.828125 150.851562 138.136719 C 150.542969 138.445312 150.183594 138.6875 149.777344 138.855469 C 149.371094 139.023438 148.949219 139.105469 148.507812 139.105469 L 119.828125 139.105469 C 119.390625 139.105469 118.964844 139.023438 118.558594 138.855469 C 118.152344 138.6875 117.792969 138.445312 117.484375 138.136719 C 117.171875 137.824219 116.933594 137.464844 116.761719 137.058594 C 116.59375 136.652344 116.511719 136.230469 116.511719 135.792969 C 116.511719 135.351562 116.59375 134.929688 116.761719 134.523438 C 116.933594 134.117188 117.171875 133.757812 117.484375 133.449219 C 117.792969 133.136719 118.152344 132.898438 118.558594 132.730469 C 118.964844 132.5625 119.390625 132.476562 119.828125 132.476562 L 148.511719 132.476562 C 148.953125 132.476562 149.375 132.5625 149.785156 132.730469 C 150.191406 132.898438 150.550781 133.140625 150.859375 133.453125 C 151.171875 133.765625 151.410156 134.125 151.578125 134.535156 C 151.746094 134.941406 151.828125 135.367188 151.824219 135.804688 Z M 151.824219 135.796875 " fill-opacity="1" fill-rule="nonzero"/><path stroke-linecap="butt" transform="matrix(0.748005, 0, 0, 0.748005, 63.580451, 90.508636)" fill="none" stroke-linejoin="miter" d="M 0.00211293 1.99901 L 80.001342 1.99901 " stroke="#000000" stroke-width="4" stroke-opacity="1" stroke-miterlimit="4"/></svg>