<svg xmlns="http://www.w3.org/2000/svg" xmlns:xlink="http://www.w3.org/1999/xlink" width="250" zoomAndPan="magnify" viewBox="0 0 187.5 187.499992" height="250" preserveAspectRatio="xMidYMid meet" version="1.0"><path fill="#ffffff" d="M 184.242188 130.925781 L 168.160156 96.507812 L 168.160156 40.574219 C 168.160156 39.660156 167.835938 38.878906 167.191406 38.234375 L 138.003906 9.039062 C 137.355469 8.390625 136.578125 8.070312 135.664062 8.070312 L 117.539062 8.070312 L 113.050781 5.359375 C 112.269531 4.886719 111.433594 4.757812 110.546875 4.976562 L 106.300781 6.023438 L 90.261719 0.199219 C 89.402344 -0.109375 88.558594 -0.0742188 87.730469 0.3125 L 71.113281 8.078125 L 42.480469 8.078125 C 42.042969 8.078125 41.621094 8.160156 41.214844 8.328125 C 40.808594 8.496094 40.453125 8.734375 40.140625 9.046875 C 39.832031 9.355469 39.59375 9.714844 39.425781 10.121094 C 39.253906 10.527344 39.171875 10.949219 39.171875 11.386719 L 39.171875 22.535156 L 21.191406 26.960938 C 20.765625 27.066406 20.375 27.25 20.019531 27.507812 C 19.667969 27.769531 19.375 28.085938 19.148438 28.460938 C 18.921875 28.835938 18.777344 29.242188 18.710938 29.675781 C 18.644531 30.109375 18.664062 30.539062 18.769531 30.964844 L 19.117188 32.371094 L 4.359375 39.273438 C 3.960938 39.457031 3.613281 39.710938 3.316406 40.035156 C 3.019531 40.359375 2.796875 40.730469 2.648438 41.140625 C 2.5 41.554688 2.433594 41.980469 2.453125 42.417969 C 2.472656 42.855469 2.574219 43.277344 2.761719 43.671875 L 39.175781 121.59375 L 39.175781 169.214844 C 39.175781 169.652344 39.257812 170.074219 39.425781 170.480469 C 39.59375 170.882812 39.832031 171.242188 40.144531 171.550781 C 40.453125 171.863281 40.8125 172.101562 41.214844 172.269531 C 41.621094 172.4375 42.042969 172.519531 42.480469 172.519531 L 53.578125 172.519531 L 55.988281 182.332031 C 56.09375 182.757812 56.277344 183.148438 56.535156 183.5 C 56.796875 183.855469 57.113281 184.144531 57.488281 184.371094 C 57.863281 184.601562 58.269531 184.746094 58.703125 184.8125 C 59.136719 184.878906 59.566406 184.859375 59.992188 184.753906 L 67.789062 182.835938 L 68.75 184.890625 C 68.933594 185.289062 69.1875 185.640625 69.511719 185.9375 C 69.835938 186.234375 70.203125 186.457031 70.617188 186.609375 C 71.03125 186.757812 71.457031 186.824219 71.894531 186.804688 C 72.332031 186.785156 72.75 186.683594 73.148438 186.5 L 95.613281 176.003906 L 109.71875 172.53125 L 164.851562 172.53125 C 165.289062 172.53125 165.710938 172.449219 166.117188 172.28125 C 166.523438 172.113281 166.878906 171.871094 167.191406 171.5625 C 167.5 171.253906 167.738281 170.894531 167.90625 170.488281 C 168.074219 170.082031 168.160156 169.660156 168.160156 169.222656 L 168.160156 158.148438 L 177.355469 155.882812 C 177.78125 155.78125 178.171875 155.597656 178.527344 155.335938 C 178.878906 155.078125 179.171875 154.761719 179.398438 154.382812 C 179.625 154.007812 179.769531 153.605469 179.835938 153.171875 C 179.902344 152.738281 179.882812 152.308594 179.777344 151.878906 L 176.421875 138.222656 L 182.648438 135.3125 C 183.046875 135.128906 183.394531 134.875 183.691406 134.550781 C 183.988281 134.226562 184.210938 133.859375 184.363281 133.449219 C 184.511719 133.035156 184.578125 132.609375 184.558594 132.171875 C 184.539062 131.730469 184.4375 131.3125 184.253906 130.914062 Z M 138.972656 19.375 L 156.859375 37.265625 L 138.972656 37.265625 Z M 89.292969 6.886719 L 92.566406 8.078125 L 86.742188 8.078125 Z M 39.175781 29.351562 L 39.175781 86.25 L 25.976562 32.597656 Z M 20.71875 38.933594 L 35.019531 97.066406 L 10.15625 43.867188 Z M 60.398438 172.519531 L 82.015625 172.519531 L 61.628906 177.542969 Z M 45.792969 165.894531 L 45.792969 14.695312 L 132.351562 14.695312 L 132.351562 40.574219 C 132.351562 41.011719 132.4375 41.433594 132.605469 41.839844 C 132.773438 42.246094 133.011719 42.605469 133.324219 42.914062 C 133.632812 43.222656 133.992188 43.464844 134.398438 43.628906 C 134.800781 43.796875 135.222656 43.882812 135.664062 43.882812 L 161.539062 43.882812 L 161.539062 165.910156 Z M 168.160156 151.320312 L 168.160156 132.367188 L 172.5625 150.242188 Z M 174.808594 131.667969 L 172.054688 120.476562 L 176.84375 130.71875 Z M 55.699219 43.117188 C 55.699219 42.679688 55.78125 42.253906 55.949219 41.851562 C 56.117188 41.445312 56.359375 41.085938 56.667969 40.777344 C 56.980469 40.464844 57.335938 40.226562 57.742188 40.058594 C 58.148438 39.890625 58.570312 39.808594 59.007812 39.808594 L 87.117188 39.808594 C 87.546875 39.820312 87.960938 39.910156 88.355469 40.082031 C 88.753906 40.257812 89.101562 40.496094 89.402344 40.804688 C 89.703125 41.117188 89.9375 41.46875 90.101562 41.871094 C 90.261719 42.269531 90.34375 42.6875 90.34375 43.117188 C 90.34375 43.550781 90.261719 43.964844 90.101562 44.367188 C 89.9375 44.765625 89.703125 45.121094 89.402344 45.429688 C 89.101562 45.738281 88.753906 45.980469 88.355469 46.152344 C 87.960938 46.324219 87.546875 46.417969 87.117188 46.425781 L 59.011719 46.425781 C 58.574219 46.425781 58.152344 46.34375 57.746094 46.175781 C 57.339844 46.007812 56.984375 45.769531 56.671875 45.460938 C 56.363281 45.152344 56.125 44.792969 55.957031 44.390625 C 55.785156 43.984375 55.703125 43.566406 55.699219 43.125 Z M 55.699219 56.765625 C 55.699219 56.328125 55.78125 55.902344 55.949219 55.5 C 56.117188 55.09375 56.359375 54.734375 56.667969 54.425781 C 56.980469 54.113281 57.335938 53.875 57.742188 53.707031 C 58.148438 53.539062 58.570312 53.457031 59.007812 53.457031 L 109.769531 53.457031 C 110.210938 53.457031 110.632812 53.542969 111.039062 53.710938 C 111.445312 53.878906 111.804688 54.117188 112.113281 54.429688 C 112.425781 54.738281 112.664062 55.097656 112.832031 55.503906 C 113 55.910156 113.085938 56.332031 113.085938 56.769531 C 113.085938 57.210938 113 57.632812 112.832031 58.039062 C 112.664062 58.445312 112.425781 58.804688 112.113281 59.113281 C 111.804688 59.425781 111.445312 59.664062 111.039062 59.832031 C 110.632812 60 110.210938 60.085938 109.769531 60.085938 L 59.011719 60.085938 C 58.570312 60.085938 58.148438 60 57.742188 59.832031 C 57.339844 59.664062 56.980469 59.425781 56.671875 59.117188 C 56.359375 58.804688 56.121094 58.449219 55.953125 58.042969 C 55.785156 57.636719 55.699219 57.214844 55.699219 56.773438 Z M 151.632812 75.097656 C 151.632812 75.535156 151.546875 75.960938 151.378906 76.363281 C 151.210938 76.769531 150.972656 77.128906 150.664062 77.4375 C 150.351562 77.75 149.992188 77.988281 149.589844 78.15625 C 149.183594 78.324219 148.761719 78.40625 148.320312 78.40625 L 59.011719 78.40625 C 58.570312 78.40625 58.148438 78.324219 57.742188 78.15625 C 57.335938 77.988281 56.976562 77.746094 56.667969 77.4375 C 56.355469 77.125 56.117188 76.769531 55.949219 76.363281 C 55.78125 75.957031 55.695312 75.535156 55.695312 75.09375 C 55.695312 74.652344 55.78125 74.230469 55.949219 73.824219 C 56.117188 73.417969 56.355469 73.0625 56.667969 72.75 C 56.976562 72.441406 57.335938 72.199219 57.742188 72.03125 C 58.148438 71.863281 58.570312 71.78125 59.011719 71.78125 L 148.324219 71.78125 C 148.765625 71.78125 149.1875 71.863281 149.59375 72.035156 C 150 72.203125 150.359375 72.441406 150.671875 72.753906 C 150.980469 73.066406 151.21875 73.429688 151.386719 73.835938 C 151.554688 74.242188 151.636719 74.667969 151.632812 75.109375 Z M 151.632812 90.273438 C 151.632812 90.714844 151.550781 91.136719 151.386719 91.546875 C 151.21875 91.953125 150.980469 92.3125 150.671875 92.625 C 150.359375 92.9375 150 93.179688 149.59375 93.347656 C 149.1875 93.515625 148.765625 93.601562 148.324219 93.601562 L 59.011719 93.601562 C 58.570312 93.601562 58.148438 93.515625 57.742188 93.347656 C 57.335938 93.179688 56.976562 92.941406 56.667969 92.628906 C 56.355469 92.320312 56.117188 91.960938 55.949219 91.554688 C 55.78125 91.148438 55.695312 90.726562 55.695312 90.285156 C 55.695312 89.847656 55.78125 89.425781 55.949219 89.019531 C 56.117188 88.613281 56.355469 88.253906 56.667969 87.945312 C 56.976562 87.632812 57.335938 87.394531 57.742188 87.226562 C 58.148438 87.058594 58.570312 86.972656 59.011719 86.972656 L 148.324219 86.972656 C 148.761719 86.972656 149.183594 87.058594 149.589844 87.226562 C 149.996094 87.394531 150.355469 87.632812 150.664062 87.941406 C 150.976562 88.253906 151.214844 88.609375 151.382812 89.015625 C 151.550781 89.421875 151.632812 89.84375 151.632812 90.28125 Z M 151.632812 105.449219 C 151.632812 105.886719 151.546875 106.308594 151.378906 106.714844 C 151.210938 107.121094 150.972656 107.476562 150.660156 107.789062 C 150.351562 108.097656 149.992188 108.335938 149.589844 108.503906 C 149.183594 108.671875 148.761719 108.757812 148.320312 108.757812 L 59.011719 108.757812 C 58.570312 108.757812 58.148438 108.671875 57.742188 108.503906 C 57.335938 108.335938 56.976562 108.097656 56.664062 107.785156 C 56.351562 107.476562 56.113281 107.117188 55.945312 106.710938 C 55.777344 106.304688 55.691406 105.882812 55.691406 105.441406 C 55.691406 105.003906 55.777344 104.578125 55.945312 104.171875 C 56.113281 103.765625 56.351562 103.40625 56.664062 103.097656 C 56.976562 102.785156 57.335938 102.546875 57.742188 102.378906 C 58.148438 102.210938 58.570312 102.128906 59.011719 102.128906 L 148.324219 102.128906 C 148.765625 102.128906 149.1875 102.210938 149.59375 102.382812 C 150 102.550781 150.359375 102.789062 150.667969 103.101562 C 150.980469 103.414062 151.21875 103.773438 151.386719 104.179688 C 151.554688 104.589844 151.636719 105.011719 151.632812 105.453125 Z M 151.632812 120.621094 C 151.632812 121.0625 151.546875 121.484375 151.378906 121.890625 C 151.210938 122.292969 150.972656 122.652344 150.660156 122.960938 C 150.351562 123.273438 149.992188 123.511719 149.589844 123.679688 C 149.183594 123.847656 148.761719 123.929688 148.320312 123.929688 L 59.011719 123.929688 C 58.570312 123.929688 58.148438 123.847656 57.742188 123.679688 C 57.335938 123.511719 56.976562 123.269531 56.667969 122.960938 C 56.355469 122.648438 56.117188 122.292969 55.949219 121.886719 C 55.78125 121.480469 55.695312 121.054688 55.695312 120.617188 C 55.695312 120.175781 55.78125 119.753906 55.949219 119.347656 C 56.117188 118.941406 56.355469 118.585938 56.667969 118.273438 C 56.976562 117.960938 57.335938 117.722656 57.742188 117.554688 C 58.148438 117.386719 58.570312 117.300781 59.011719 117.300781 L 148.324219 117.300781 C 148.765625 117.300781 149.1875 117.386719 149.59375 117.554688 C 150 117.726562 150.359375 117.964844 150.671875 118.277344 C 150.980469 118.59375 151.222656 118.953125 151.386719 119.359375 C 151.554688 119.769531 151.636719 120.191406 151.632812 120.632812 Z M 151.632812 135.796875 C 151.632812 136.234375 151.546875 136.65625 151.378906 137.0625 C 151.210938 137.46875 150.972656 137.828125 150.664062 138.136719 C 150.351562 138.445312 149.992188 138.6875 149.589844 138.855469 C 149.183594 139.023438 148.761719 139.105469 148.320312 139.105469 L 119.679688 139.105469 C 119.238281 139.105469 118.816406 139.023438 118.410156 138.855469 C 118.003906 138.6875 117.644531 138.445312 117.335938 138.136719 C 117.023438 137.824219 116.785156 137.464844 116.617188 137.058594 C 116.449219 136.652344 116.363281 136.230469 116.363281 135.792969 C 116.363281 135.351562 116.449219 134.929688 116.617188 134.523438 C 116.785156 134.117188 117.023438 133.757812 117.335938 133.449219 C 117.644531 133.136719 118.003906 132.898438 118.410156 132.730469 C 118.816406 132.5625 119.238281 132.476562 119.679688 132.476562 L 148.324219 132.476562 C 148.765625 132.476562 149.1875 132.5625 149.59375 132.730469 C 150 132.898438 150.359375 133.140625 150.671875 133.453125 C 150.980469 133.765625 151.222656 134.125 151.386719 134.535156 C 151.554688 134.941406 151.636719 135.367188 151.632812 135.804688 Z M 151.632812 135.796875 " fill-opacity="1" fill-rule="nonzero"/><path stroke-linecap="butt" transform="matrix(0.748005, 0, 0, 0.748005, 63.580451, 90.508636)" fill="none" stroke-linejoin="miter" d="M 0.00211293 1.99901 L 80.001342 1.99901 " stroke="#ffffff" stroke-width="4" stroke-opacity="1" stroke-miterlimit="4"/></svg>