<svg xmlns="http://www.w3.org/2000/svg" xmlns:xlink="http://www.w3.org/1999/xlink" width="250" zoomAndPan="magnify" viewBox="0 0 187.5 187.499992" height="250" preserveAspectRatio="xMidYMid meet" version="1.0"><path stroke-linecap="butt" transform="matrix(0.748005, 0, 0, 0.748005, 22.769695, 28.868328)" fill="none" stroke-linejoin="miter" d="M -0.000218887 1.998587 L 79.99901 1.998587 " stroke="#000000" stroke-width="4" stroke-opacity="1" stroke-miterlimit="4"/><path fill="#000000" d="M 131.804688 124.699219 L 183.554688 124.699219 L 183.554688 92.371094 L 171.503906 68.234375 L 131.804688 68.234375 L 131.804688 74.917969 L 145.082031 74.917969 L 145.082031 94.144531 L 131.804688 94.144531 Z M 138.308594 104.714844 C 137.160156 104.714844 136.230469 105.648438 136.230469 106.796875 C 136.230469 107.945312 137.160156 108.875 138.308594 108.875 L 143.003906 108.875 C 144.152344 108.875 145.082031 107.945312 145.082031 106.796875 C 145.082031 105.648438 144.152344 104.714844 143.003906 104.714844 Z M 151.296875 94.144531 L 175.820312 94.144531 L 166.222656 74.917969 L 151.296875 74.917969 Z M 151.296875 94.144531 " fill-opacity="1" fill-rule="evenodd"/><path fill="#000000" d="M 114.488281 124.699219 L 107.214844 124.699219 L 107.214844 68.234375 L 114.488281 68.234375 Z M 59.402344 97.839844 L 59.402344 82.070312 C 59.402344 80.917969 58.472656 79.988281 57.324219 79.988281 C 56.179688 79.988281 55.246094 80.917969 55.246094 82.070312 L 55.246094 87.429688 C 55.160156 87.339844 55.074219 87.25 54.984375 87.160156 C 52.253906 84.425781 48.480469 82.734375 44.316406 82.734375 C 40.148438 82.734375 36.378906 84.425781 33.648438 87.160156 C 30.917969 89.894531 29.226562 93.667969 29.226562 97.839844 C 29.226562 102.011719 30.917969 105.785156 33.648438 108.519531 C 36.378906 111.253906 40.148438 112.945312 44.316406 112.945312 C 48.480469 112.945312 52.253906 111.253906 54.984375 108.519531 C 57.714844 105.785156 59.402344 102.011719 59.402344 97.839844 Z M 103.058594 124.699219 L 87.386719 124.699219 L 87.386719 114.355469 L 103.058594 114.355469 Z M 83.230469 124.699219 L 3.324219 124.699219 L 3.324219 68.234375 L 83.230469 68.234375 Z M 87.386719 68.234375 L 103.058594 68.234375 L 103.058594 78.578125 L 87.386719 78.578125 Z M 87.386719 82.738281 L 103.058594 82.738281 L 103.058594 94.386719 L 87.386719 94.386719 Z M 87.386719 98.546875 L 103.058594 98.546875 L 103.058594 110.195312 L 87.386719 110.195312 Z M 87.386719 98.546875 " fill-opacity="1" fill-rule="evenodd"/><path fill="#000000" d="M 117.097656 130.722656 L 129.449219 130.722656 L 129.449219 136.957031 L 117.097656 136.957031 Z M 117.097656 130.722656 " fill-opacity="1" fill-rule="evenodd"/><path fill="#000000" d="M 160.796875 129.210938 C 168.726562 129.210938 175.152344 135.648438 175.152344 143.585938 C 175.152344 151.523438 168.726562 157.957031 160.796875 157.957031 C 152.867188 157.957031 146.4375 151.523438 146.4375 143.585938 C 146.4375 135.648438 152.867188 129.210938 160.796875 129.210938 Z M 160.796875 136.84375 C 164.515625 136.84375 167.53125 139.863281 167.53125 143.585938 C 167.53125 147.308594 164.515625 150.328125 160.796875 150.328125 C 157.074219 150.328125 154.0625 147.308594 154.0625 143.585938 C 154.0625 139.863281 157.074219 136.84375 160.796875 136.84375 Z M 160.796875 136.84375 " fill-opacity="1" fill-rule="evenodd"/><path fill="#000000" d="M 29.046875 129.210938 C 36.976562 129.210938 43.40625 135.648438 43.40625 143.585938 C 43.40625 151.523438 36.976562 157.957031 29.046875 157.957031 C 21.117188 157.957031 14.691406 151.523438 14.691406 143.585938 C 14.691406 135.648438 21.117188 129.210938 29.046875 129.210938 Z M 29.046875 136.84375 C 32.769531 136.84375 35.785156 139.863281 35.785156 143.585938 C 35.785156 147.308594 32.769531 150.328125 29.046875 150.328125 C 25.328125 150.328125 22.3125 147.308594 22.3125 143.585938 C 22.3125 139.863281 25.328125 136.84375 29.046875 136.84375 Z M 29.046875 136.84375 " fill-opacity="1" fill-rule="evenodd"/><path fill="#000000" d="M 66.605469 129.210938 C 74.535156 129.210938 80.964844 135.648438 80.964844 143.585938 C 80.964844 151.523438 74.535156 157.957031 66.605469 157.957031 C 58.675781 157.957031 52.246094 151.523438 52.246094 143.585938 C 52.246094 135.648438 58.675781 129.210938 66.605469 129.210938 Z M 66.605469 136.84375 C 70.324219 136.84375 73.339844 139.863281 73.339844 143.585938 C 73.339844 147.308594 70.324219 150.328125 66.605469 150.328125 C 62.886719 150.328125 59.871094 147.308594 59.871094 143.585938 C 59.871094 139.863281 62.886719 136.84375 66.605469 136.84375 Z M 66.605469 136.84375 " fill-opacity="1" fill-rule="evenodd"/><path fill="#000000" d="M 3.324219 29.179688 C 1.601562 29.179688 0.207031 30.578125 0.207031 32.300781 C 0.207031 34.023438 1.601562 35.421875 3.324219 35.421875 L 114.488281 35.421875 C 116.210938 35.421875 117.605469 34.023438 117.605469 32.300781 C 117.605469 30.578125 116.210938 29.179688 114.488281 29.179688 Z M 3.324219 29.179688 " fill-opacity="1" fill-rule="nonzero"/><path fill="#000000" d="M 3.324219 49.027344 C 1.601562 49.027344 0.207031 50.425781 0.207031 52.148438 C 0.207031 53.871094 1.601562 55.269531 3.324219 55.269531 L 114.488281 55.269531 C 116.210938 55.269531 117.605469 53.871094 117.605469 52.148438 C 117.605469 50.425781 116.210938 49.027344 114.488281 49.027344 Z M 3.324219 49.027344 " fill-opacity="1" fill-rule="nonzero"/><path fill="#000000" d="M 10.394531 34.632812 L 16.628906 34.632812 L 16.628906 49.816406 L 10.394531 49.816406 Z M 10.394531 34.632812 " fill-opacity="1" fill-rule="nonzero"/><path fill="#000000" d="M 28.554688 34.632812 L 34.789062 34.632812 L 34.789062 49.816406 L 28.554688 49.816406 Z M 28.554688 34.632812 " fill-opacity="1" fill-rule="nonzero"/><path fill="#000000" d="M 46.710938 34.632812 L 52.945312 34.632812 L 52.945312 49.816406 L 46.710938 49.816406 Z M 46.710938 34.632812 " fill-opacity="1" fill-rule="nonzero"/><path fill="#000000" d="M 64.867188 34.632812 L 71.101562 34.632812 L 71.101562 49.816406 L 64.867188 49.816406 Z M 64.867188 34.632812 " fill-opacity="1" fill-rule="nonzero"/><path fill="#000000" d="M 83.027344 34.632812 L 89.257812 34.632812 L 89.257812 49.816406 L 83.027344 49.816406 Z M 83.027344 34.632812 " fill-opacity="1" fill-rule="nonzero"/><path fill="#000000" d="M 101.183594 34.632812 L 107.417969 34.632812 L 107.417969 49.816406 L 101.183594 49.816406 Z M 101.183594 34.632812 " fill-opacity="1" fill-rule="nonzero"/><path fill="#000000" d="M 19.476562 53.457031 L 25.707031 53.457031 L 25.707031 64.90625 L 19.476562 64.90625 Z M 19.476562 53.457031 " fill-opacity="1" fill-rule="nonzero"/><path fill="#000000" d="M 92.105469 53.457031 L 98.339844 53.457031 L 98.339844 64.90625 L 92.105469 64.90625 Z M 92.105469 53.457031 " fill-opacity="1" fill-rule="nonzero"/><path fill="#000000" d="M 44.316406 86.894531 C 38.277344 86.894531 33.382812 91.796875 33.382812 97.839844 C 33.382812 103.882812 38.277344 108.785156 44.316406 108.785156 C 50.355469 108.785156 55.25 103.882812 55.25 97.839844 C 55.25 91.796875 50.355469 86.894531 44.316406 86.894531 Z M 44.316406 86.894531 " fill-opacity="1" fill-rule="nonzero"/><path fill="#000000" d="M 131.804688 79.078125 L 140.925781 79.078125 L 140.925781 89.984375 L 131.804688 89.984375 Z M 131.804688 79.078125 " fill-opacity="1" fill-rule="evenodd"/><path fill="#000000" d="M 0 128.027344 L 18.988281 128.027344 C 14.953125 130.644531 12.003906 134.792969 10.953125 139.652344 L 0 139.652344 Z M 39.109375 128.027344 L 56.542969 128.027344 C 52.511719 130.644531 49.5625 134.792969 48.511719 139.652344 L 47.144531 139.652344 C 46.09375 134.792969 43.144531 130.644531 39.109375 128.027344 Z M 76.667969 128.027344 L 117.816406 128.027344 L 117.816406 139.652344 L 84.699219 139.652344 C 83.652344 134.792969 80.699219 130.644531 76.667969 128.027344 Z M 76.667969 128.027344 " fill-opacity="1" fill-rule="evenodd"/><path fill="#000000" d="M 187 128.027344 L 170.859375 128.027344 C 174.890625 130.644531 177.839844 134.792969 178.890625 139.652344 L 187 139.652344 Z M 150.734375 128.027344 L 128.734375 128.027344 L 128.734375 139.652344 L 142.703125 139.652344 C 143.75 134.792969 146.699219 130.644531 150.734375 128.027344 Z M 150.734375 128.027344 " fill-opacity="1" fill-rule="evenodd"/></svg>